<svg width="56" height="155" viewBox="0 0 56 155" fill="none" xmlns="http://www.w3.org/2000/svg">
<path d="M24.789 75.5526H30.3033L30.4522 141.679L27.6206 154.263L24.9379 141.679L24.789 75.5526Z" fill="#B3B3B3" stroke="#B3B3B3" stroke-width="0.355276" stroke-linecap="round"/>
<path d="M55.0459 75.4554C55.0458 78.1309 41.7397 76.3049 26.5928 76.3049C11.446 76.3049 0.194087 78.1309 0.194031 75.4554C0.193974 72.7799 12.608 62.9172 27.7549 62.9172C42.9018 62.9172 55.0459 72.7799 55.0459 75.4554Z" fill="#0A3371" stroke="#440000" stroke-width="0.377952" stroke-linecap="round"/>
<path d="M55.0459 75.4554C55.0458 78.1309 41.7397 76.3049 26.5928 76.3049C11.446 76.3049 0.194087 78.1309 0.194031 75.4554C0.193974 72.7799 12.608 62.9172 27.7549 62.9172C42.9018 62.9172 55.0459 72.7799 55.0459 75.4554Z" fill="#0A3371" stroke="black" stroke-width="0.377952" stroke-linecap="round"/>
<path d="M55 74.646C54.9999 77.1311 41.6579 75.435 26.4701 75.435C11.2823 75.435 5.68462e-05 77.1311 1.94687e-10 74.646C-5.68458e-05 72.1609 12.4475 63 27.6353 63C42.8232 63 55.0001 72.1609 55 74.646Z" fill="#061D41" fill-opacity="0.84"/>
<path d="M15.3715 8.19128L38.3216 8.48192L44.7128 70.0694C44.7128 70.0694 32.1468 65.8107 26.9918 65.8307C21.9221 65.8496 9.8519 70.5052 9.8519 70.5052L15.3715 8.19128Z" fill="#0A3371"/>
<path d="M15.3715 8.19128L38.3216 8.48192L44.7128 70.0694C44.7128 70.0694 32.1468 65.8107 26.9918 65.8307C21.9221 65.8496 9.8519 70.5052 9.8519 70.5052L15.3715 8.19128Z" fill="#061E43"/>
<path d="M51.6518 6.32277C51.7032 9.29714 40.8335 10.4023 27.6153 10.4023C14.3971 10.4023 3.78429 9.14309 3.78424 6.32277C3.78419 3.50241 14.397 0.188995 27.6153 0.188995C40.8336 0.188995 51.6032 3.50286 51.6518 6.32277Z" fill="#0A3371" stroke="#020000" stroke-width="0.377953" stroke-linecap="round"/>
<path d="M50.4366 6.11418C50.4365 8.59415 40.1907 9.88557 27.6153 9.88557C15.0398 9.88557 4.89672 8.59415 4.89667 6.11418C4.89661 3.6342 15.0397 0.904755 27.6153 0.904755C40.1908 0.904755 50.4366 3.6342 50.4366 6.11418Z" fill="#0A3371"/>
<path d="M51.0041 5.68519C51.0537 8.3499 40.5582 9.34 27.795 9.34C15.0318 9.34 4.78429 8.21189 4.78424 5.68519C4.78419 3.15846 15.0317 0.190002 27.795 0.190002C40.5582 0.190002 50.9571 3.15886 51.0041 5.68519Z" fill="#061E43"/>
<path d="M49.8306 5.49832C49.8306 7.72011 39.9375 8.87708 27.7949 8.87708C15.6523 8.87708 5.85842 7.72011 5.85837 5.49832C5.85832 3.27654 15.6523 0.831253 27.7949 0.831253C39.9376 0.831253 49.8307 3.27654 49.8306 5.49832Z" fill="#061E43"/>
</svg>
